<?xml version="1.0" standalone="no"?>
<!DOCTYPE svg PUBLIC "-//W3C//DTD SVG 1.1//EN" "http://www.w3.org/Graphics/SVG/1.1/DTD/svg11.dtd">
<svg xmlns:xdom="http://www.corel.com/coreldraw/odm/2003" xmlns="http://www.w3.org/2000/svg" xmlns:xlink="http://www.w3.org/1999/xlink" version="1.1" id="Layer_1" x="0px" y="0px" viewBox="0 0 841.9 595.3" style="enable-background:new 0 0 841.9 595.3;" xml:space="preserve" width="841.9000244140625" height="595.2999877929688">
<style type="text/css">
	.st0{fill:none;stroke:#000000;stroke-width:0.7799;stroke-miterlimit:10;}
	.st1{fill:url(#SVGID_1_);}
	.st2{fill:url(#SVGID_2_);}
	.st3{fill:#00B2D7;}
</style>
<path d="M-143.1-105l-0.2,0.2l-7.8,0l-0.2-0.3 M-150.9-104.8c0,0-0.2,0-0.3,0l0,0c0,1.5,0,7.2,0,7.2l0.2,0.2v0 M-147.8-95.5l0.2,0.2  l0-9.5h-0.3 M-150.4-96.9l0.2,0.2l0.1-8.1h-0.4 M-150-97.7l0.2,0.2v0l0.1-7.3h-0.4 M-149.7-96.1l0.2,0.2l0.1-8.9h-0.4 M-149.3-97  l0.2,0.2l0.1-8.1l-0.3,0 M-148.9-95.4l0.2,0.2l0.1-9.6l-0.4,0 M-148.5-96.2l0.2,0.2l0.1-8.8h-0.4 M-148.1-94.7l0.2,0.2l0.1-10.4  h-0.4 M-154.4-108.1l-0.3-0.3c0,0,15,0,15,0l-0.2,0.2 M-140.5-107.7l-0.2,0.2h0l-13,0.1l-0.4-0.4 M-140.8-107.3l-0.2,0.2h0  l-12.3,0.1l-0.4-0.4 M-141.2-106.9l-0.2,0.2l0,0l-11.5,0.1l-0.4-0.4 M-141.6-106.5l-0.2,0.2l-10.8,0.1l-0.3-0.3 M-142-106.1  l-0.2,0.2l-10,0.1l-0.4-0.4 M-142.4-105.8l-0.2,0.2l-9.2,0.1l-0.4-0.4 M-142.8-105.4l-0.2,0.2l0,0l-8.5,0.1l-0.4-0.4 M-143.1-105  l-0.2,0.2v5.6c0,0.7-0.1,1.4-0.4,2.1c-0.2,0.7-0.6,1.2-1,1.7c-0.5,0.6-1,0.9-1.6,1.2c-0.6,0.2-1.1,0.3-1.8,0.3l-2.5,0l0.2,0.2l2.3,0  c0.7,0,1.3-0.1,1.9-0.3c0.7-0.3,1.1-0.6,1.7-1.2c0.4-0.5,0.8-1.1,1.1-1.8c0.3-0.7,0.4-1.5,0.4-2.2L-143.1-105z M-139.9-108.2v9.4  c0,1.1-0.2,2.2-0.6,3.2c-0.4,1-1.1,2-1.8,2.7c-0.8,0.8-1.7,1.4-2.7,1.8c-0.9,0.4-1.9,0.6-3,0.6c0,0,0,0,0.2,0.2c1,0,2-0.3,2.9-0.6  c1.1-0.4,2-1.1,2.8-1.9c0.8-0.8,1.4-1.7,1.9-2.8c0.4-1,0.7-2.1,0.7-3.3l0-9.6L-139.9-108.2L-139.9-108.2z M-142.8-105.4l-0.2,0.2  v5.8c0,0.7-0.1,1.4-0.3,2.1c-0.2,0.6-0.5,1.2-0.9,1.7c-0.4,0.5-0.9,1-1.4,1.3l0,0c-0.5,0.3-1.1,0.5-1.7,0.6  c-0.9,0.1-1.8,0.1-2.6,0.1l-1.3,0l0,0l0,0l0.1,0.1l1.1,0c0.8,0,1.7,0,2.6-0.1c0.6-0.1,1.2-0.3,1.7-0.6l0,0c0.6-0.4,1.1-0.9,1.5-1.4  c0.4-0.5,0.7-1.1,0.9-1.8c0.2-0.7,0.3-1.4,0.3-2.2L-142.8-105.4z M-142.4-105.8l-0.2,0.2v5.7c0,0.8-0.1,1.5-0.2,2.2  c-0.1,0.6-0.3,1.3-0.7,1.8c-0.4,0.6-0.9,1.2-1.4,1.6c-0.5,0.4-1,0.7-1.5,0.9c-1,0.3-1.8,0.3-2.7,0.3l-0.8,0l0.2,0.2l0.6,0  c0.9,0,1.7,0,2.7-0.3c0.6-0.2,1.1-0.5,1.6-0.9c0.6-0.5,1.1-1.1,1.4-1.7c0.3-0.5,0.5-1.2,0.7-1.8c0.2-0.7,0.2-1.5,0.2-2.3  L-142.4-105.8L-142.4-105.8z M-142-106.1l-0.2,0.2v5.5c0,0.7,0,1.4-0.1,2.1c-0.1,0.7-0.2,1.4-0.5,2c-0.3,0.7-0.8,1.3-1.3,1.9  c-0.5,0.5-1.1,1-1.7,1.2c-1.3,0.6-3.2,0.5-4.5,0.5c0,0,0,0,0.2,0.2c1.3,0,3.1,0.1,4.4-0.5c0.6-0.3,1.2-0.7,1.7-1.3  c0.6-0.6,1-1.2,1.3-1.9c0.3-0.6,0.4-1.3,0.5-2c0.1-0.7,0.1-1.4,0.1-2.2L-142-106.1L-142-106.1z M-141.6-106.5l-0.2,0.2l0,5.6  c0,1.4,0,2.6-0.5,3.9c-0.3,0.8-0.7,1.5-1.2,2.2c-0.5,0.6-1.2,1.2-1.8,1.5c-0.6,0.3-1.2,0.5-1.8,0.6c-0.6,0.1-1.3,0.1-2.1,0.1  l0.2,0.2c0.7,0,1.4,0,1.9-0.1c0.6-0.1,1.2-0.3,1.8-0.6c0.6-0.3,1.3-0.9,1.8-1.5c0.6-0.7,0.9-1.3,1.3-2.3c0.5-1.3,0.5-2.6,0.5-4  L-141.6-106.5L-141.6-106.5z M-141.2-106.9l-0.2,0.2l0,5.7c0,1.3,0,2.5-0.3,3.8c-0.1,0.3-0.2,0.6-0.3,0.9c-0.1,0.3-0.3,0.7-0.5,1  c-0.3,0.5-0.6,1-1,1.4c-0.4,0.4-0.8,0.7-1.1,0.9c-0.7,0.4-1.4,0.7-2.2,0.8c-0.7,0.1-1.8,0.2-2.6,0.2c0,0,0,0,0.2,0.2  c0.8,0,1.9-0.1,2.5-0.2c0.8-0.2,1.6-0.4,2.3-0.8c0.4-0.3,0.8-0.6,1.2-1c0.4-0.4,0.8-0.9,1-1.4c0.2-0.3,0.4-0.7,0.5-1  c0.1-0.3,0.2-0.6,0.3-0.9c0.4-1.3,0.3-2.6,0.3-3.9L-141.2-106.9L-141.2-106.9z M-140.8-107.3l-0.2,0.2v5.1l0,0.8  c0,1.2,0.1,2.2-0.2,3.5c-0.1,0.3-0.1,0.6-0.2,0.9c-0.1,0.3-0.2,0.7-0.4,1c-0.3,0.6-0.7,1.2-1.1,1.7c-0.4,0.5-0.9,1-1.3,1.3  c-0.5,0.4-1.2,0.7-1.9,0.9c-0.8,0.2-1.8,0.4-2.4,0.3l0.2,0.2c0.7,0,1.5-0.1,2.3-0.3c0.7-0.2,1.4-0.5,1.9-0.9  c0.4-0.3,0.9-0.7,1.3-1.3c0.4-0.5,0.8-1.1,1.1-1.7c0.2-0.3,0.3-0.7,0.4-1c0.1-0.3,0.2-0.7,0.2-0.9c0.3-1.3,0.2-2.4,0.2-3.6l0-0.8  L-140.8-107.3z M-140.5-107.7l-0.2,0.2v4.9l0,0.9c0,1.1,0.1,2.2-0.1,3.6c0,0.4-0.1,0.8-0.2,1.2c-0.1,0.4-0.2,0.7-0.4,1.2  c-0.3,0.6-0.6,1.1-1,1.6c-0.4,0.5-0.8,0.9-1.2,1.2l0,0c-0.6,0.6-1.4,0.9-2.2,1.2c-0.9,0.3-1.9,0.4-3,0.4c0,0,0,0,0.2,0.2  c1,0,2-0.1,2.8-0.4c0.9-0.3,1.6-0.7,2.3-1.2c0.4-0.3,0.8-0.8,1.2-1.3c0.4-0.5,0.8-1.1,1-1.7c0.2-0.4,0.3-0.8,0.4-1.2  c0.1-0.4,0.2-0.8,0.2-1.2c0.2-1.4,0.1-2.5,0.1-3.6l0-0.9L-140.5-107.7L-140.5-107.7z M-140.1-108l-0.2,0.2v4.8c0,0.4,0,0.9,0,1.3  c0,1,0,2.1,0,3.4c0,0.5-0.1,1-0.3,1.6c-0.2,0.5-0.4,1.1-0.6,1.6c-0.2,0.4-0.5,0.9-0.8,1.2c-0.3,0.4-0.6,0.8-1,1.1l0,0  c-0.7,0.6-1.4,1.1-2.2,1.4c-0.8,0.3-1.7,0.5-2.5,0.6l0.2,0.2c0.8-0.1,1.7-0.3,2.4-0.6c0.8-0.3,1.6-0.8,2.2-1.4  c0.4-0.3,0.7-0.7,1-1.1c0.3-0.4,0.6-0.8,0.8-1.3c0.3-0.5,0.5-1.1,0.6-1.6c0.2-0.6,0.3-1.1,0.3-1.6c0.1-1.3,0.1-2.3,0-3.4  c0-0.4,0-0.9,0-1.3L-140.1-108L-140.1-108z M-150.6-98.3l0.1-6.6h-0.4l0.1,6.4L-150.6-98.3z M-140.3-107.9l-13.8,0.1l-0.4-0.4  l14.4,0.1L-140.3-107.9z M-148.1-90.6l-1,0.1l-0.2-0.2l1-0.1L-148.1-90.6z M-148.8-91.4h-1.2l-0.2-0.2h1.2L-148.8-91.4z   M-149.5-92.1h-1.1l-0.2-0.2h1.1L-149.5-92.1z M-150.3-92.9h-1.2l-0.2-0.2h1.2L-150.3-92.9z M-151-93.6h-1.2l-0.2-0.2h1.2  C-151.2-93.8-151-93.6-151-93.6z"/>
<g>
	<g id="_2887086817264">
		<path d="M464.6,163.7c0.5,16.6,0.5,33.2,0,49.8c-0.2,4.8-1.8,8.7-4.8,11.7c-3.1,2.9-7,4.5-11.9,4.8c-2.1,0.1-4.4,0.2-6.7,0.2    c-2.4,0-5.1,0-8.3,0c-3.2-0.1-5.5-0.1-7.1-0.1v-83.3c1.6,0,4.1-0.1,7.2-0.1c3.2-0.1,6-0.1,8.5-0.1c2.5,0,4.8,0.1,7,0.3    c4.7,0.4,8.6,2.2,11.5,5.2C463,155.2,464.5,159,464.6,163.7L464.6,163.7z M452,206.1c0-3.8,0-9.5,0-17.2c0-7.6,0.1-13.3,0.1-17.2    c0-1.8-0.1-3.2-0.1-4.3c-0.1-1.1-0.2-2.1-0.4-3.1c-0.2-1-0.5-1.7-0.9-2.2c-0.5-0.5-0.9-0.9-1.5-1.4c-0.6-0.4-1.4-0.7-2.4-0.7    c-1-0.1-2.1-0.1-3.2-0.1s-2.6,0.1-4.4,0.1v56.5c5.7,0.7,9.3,0.5,10.7-0.7C451.3,214.7,452,211.5,452,206.1z M464.6,259.9    c0.5,16.6,0.5,33.2,0,49.8c-0.2,4.8-1.8,8.7-4.8,11.7c-3.1,2.9-7,4.5-11.9,4.8c-2.1,0.1-4.4,0.2-6.7,0.2c-2.4,0-5.1,0-8.3,0    c-3.2-0.1-5.5-0.1-7.1-0.1V243c1.6,0,4.1-0.1,7.2-0.1c3.2-0.1,6-0.1,8.5-0.1c2.5,0,4.8,0.1,7,0.3c4.7,0.4,8.6,2.2,11.5,5.2    C463,251.4,464.5,255.2,464.6,259.9L464.6,259.9z M452,302.3c0-3.8,0-9.5,0-17.2c0-7.6,0.1-13.3,0.1-17.2c0-1.8-0.1-3.2-0.1-4.3    c-0.1-1.1-0.2-2.1-0.4-3.1c-0.2-1-0.5-1.7-0.9-2.2c-0.5-0.5-0.9-0.9-1.5-1.4c-0.6-0.4-1.4-0.7-2.4-0.7c-1-0.1-2.1-0.1-3.2-0.1    s-2.6,0.1-4.4,0.1v56.5c5.7,0.7,9.3,0.5,10.7-0.7C451.3,310.9,452,307.7,452,302.3z M487.3,230.2h-14.4v-83.6h14.4V230.2z     M521.3,190.2l12.6-0.1c0,0.9,0,4.4-0.1,10.6c-0.1,6.2-0.1,10.1-0.2,11.9c-0.2,5.7-2.1,10.1-5.7,13.2c-3.6,3.1-8.5,4.5-14.6,4.3    c-5.3-0.1-9.6-1.8-12.9-5.1c-3.3-3.3-5-7.6-5.1-13.1c-0.1-1.7-0.1-9.5-0.1-23.3v-23.3c0.2-5.7,1.9-10.2,5.3-13.6    c3.4-3.4,7.8-5.1,13.5-5.3c5.7-0.1,10.3,1.4,13.9,4.7c3.6,3.2,5.5,7.7,5.7,13.3c0.1,1.4,0.1,2.8,0.1,4.3c0,1.5,0.1,3.1,0.1,4.9    c0,1.8,0.1,3.2,0.1,4.2H521v-12c0-2.2-0.6-3.8-1.8-4.9c-1.2-1.1-3-1.6-5.2-1.5c-4,0.2-5.9,2.5-5.8,6.8c0.1,0,0.1,3.7,0,11.1v11    v10.9c0.1,7.2,0.1,10.8,0,10.8c-0.1,4.6,1.9,7,6.1,7.2c4.5,0.2,6.8-2,6.8-6.6v-13.8l-5.3-1.8v-5.1L521.3,190.2L521.3,190.2z     M555.7,230.2h-14.4v-83.6h14.4V230.2z M499.4,242.8l16.6,83.6H503l-0.5-2.9l-2.4-10.2l-7.7-0.1l-7.7,0.1l-2.3,10.2l-0.5,2.9    h-13.1l16.7-83.6H499.4z M487.1,300.5h10.5l-5.2-31L487.1,300.5z M542.5,285.1l18,37.1l2,4.2h-14.1l-13.1-26.7l-1-2v28.7h-13.7    v-83.6h13.7v29.8l1-2l13.6-27.8h14.2l-2.6,5.3L542.5,285.1L542.5,285.1z M588.1,278.2c6.9,3.7,11.3,8.4,13.3,14.1    c2,5.8,2.1,12.8,0.3,21c-1,4.7-3.2,8.1-6.8,10.2c-3.5,2.2-8,3.1-13.5,2.7c-4.7-0.3-8.5-1.8-11.4-4.4c-2.9-2.6-4.7-6.3-5.4-10.9    c-0.3-1.9-0.5-4.7-0.6-8.4c-0.1-3.7-0.2-5.9-0.3-6.7H577c0,5.2,0,9,0.1,11.5c0.1,4.2,2.2,6.3,6.6,6.2c2-0.1,3.5-0.6,4.5-1.7    c0.9-1.1,1.5-2.7,1.8-4.8c0.5-4.5-0.1-8.3-1.8-11.4c-1.7-3-4.6-5.6-8.8-7.8c-12.6-6.4-17.4-16.6-14.6-30.6    c0.9-4.7,3.2-8.3,6.6-10.9c3.5-2.6,7.7-3.9,12.7-3.7c5,0.1,9.2,1.6,12.6,4.4c3.4,2.8,5.3,6.6,6,11.2c0.1,1.1,0.2,2.3,0.2,3.5    s0,2.7-0.1,4.3c-0.1,1.6-0.1,2.9-0.1,3.7h-12.8v-8.3c-0.1-3.7-2-5.6-5.7-5.8c-3.9-0.3-6.2,1.5-6.9,5.3c-1.1,6.2,1,11,6.2,14.4    C584.4,276.2,586,277.1,588.1,278.2L588.1,278.2z M636,242.8h13.5v83.4H636v-38.5h-12.6v38.8h-13.6V243h13.6v38.2H636V242.8z     M684.7,242.8l16.6,83.6h-13.1l-0.5-2.9l-2.4-10.2l-7.7-0.1l-7.7,0.1l-2.3,10.2l-0.5,2.9h-13.1l16.7-83.6H684.7L684.7,242.8z     M672.5,300.5H683l-5.2-31L672.5,300.5z"/>
		<path d="M450.7,375.5h-10.9v27.9h-3v-27.9h-10.9v-2.7h24.8L450.7,375.5L450.7,375.5z M459.4,403.9c-1.6,0-3.1-0.3-4.5-0.9    c-1.4-0.6-2.5-1.5-3.5-2.5c-1-1.1-1.8-2.3-2.3-3.7c-0.5-1.4-0.8-2.9-0.8-4.4c0-1.6,0.3-3.1,0.8-4.5c0.5-1.4,1.3-2.6,2.3-3.7    c1-1.1,2.2-1.9,3.6-2.5c1.4-0.6,2.9-0.9,4.5-0.9c1.6,0,3.1,0.3,4.4,0.9c1.4,0.6,2.5,1.5,3.5,2.5c1,1.1,1.8,2.3,2.3,3.7    c0.5,1.4,0.8,2.9,0.8,4.5c0,1.5-0.3,3-0.8,4.4c-0.5,1.4-1.3,2.6-2.3,3.7c-1,1.1-2.2,1.9-3.5,2.5    C462.5,403.6,461,403.9,459.4,403.9L459.4,403.9z M451.2,392.4c0,1.7,0.4,3.2,1.1,4.5c0.7,1.4,1.7,2.4,3,3.2s2.6,1.2,4.1,1.2    c1.5,0,2.9-0.4,4.1-1.2c1.2-0.8,2.2-1.9,3-3.3c0.7-1.4,1.1-2.9,1.1-4.5c0-1.7-0.4-3.2-1.1-4.5c-0.7-1.4-1.7-2.5-3-3.3    c-1.2-0.8-2.6-1.2-4.1-1.2s-2.9,0.4-4.1,1.2c-1.2,0.8-2.2,1.9-3,3.3C451.6,389.2,451.2,390.7,451.2,392.4L451.2,392.4z     M484.5,403.9c-1.5,0-2.9-0.3-4.2-0.9c-1.3-0.6-2.4-1.5-3.3-2.6c-0.9-1.1-1.7-2.3-2.2-3.7c-0.5-1.4-0.8-2.8-0.8-4.3    c0-1.6,0.3-3.1,0.8-4.5c0.5-1.4,1.2-2.6,2.2-3.7c0.9-1.1,2-1.9,3.3-2.6c1.3-0.6,2.7-0.9,4.2-0.9c1.9,0,3.6,0.5,5,1.4    c1.4,1,2.6,2.2,3.6,3.6v-4.7h2.6v22.5c0,2.1-0.5,3.8-1.5,5.2c-1,1.4-2.3,2.5-4,3.2c-1.7,0.7-3.5,1.1-5.5,1.1    c-2.6,0-4.6-0.5-6.2-1.4c-1.6-0.9-2.9-2.2-3.9-3.7l1.8-1.4c0.9,1.4,2.1,2.5,3.6,3.1c1.5,0.7,3.1,1,4.7,1c1.5,0,2.8-0.3,4-0.8    c1.2-0.5,2.2-1.3,2.9-2.4c0.7-1,1.1-2.4,1.1-3.9v-4.4c-0.9,1.4-2,2.5-3.5,3.4C487.7,403.5,486.1,403.9,484.5,403.9L484.5,403.9z     M485.3,401.5c0.9,0,1.7-0.2,2.6-0.5c0.8-0.3,1.6-0.7,2.3-1.3c0.7-0.5,1.3-1.1,1.7-1.8c0.5-0.7,0.7-1.3,0.9-2v-6.9    c-0.4-1.1-1-2.1-1.9-2.9c-0.8-0.8-1.7-1.5-2.7-2c-1-0.5-2.1-0.7-3.2-0.7c-1.3,0-2.4,0.3-3.4,0.8c-1,0.5-1.8,1.2-2.5,2.1    c-0.7,0.9-1.2,1.9-1.6,3c-0.4,1.1-0.6,2.2-0.6,3.3c0,1.2,0.2,2.4,0.6,3.4c0.4,1.1,1,2,1.8,2.9c0.8,0.8,1.7,1.5,2.7,2    C483.1,401.2,484.1,401.5,485.3,401.5L485.3,401.5z M511.8,403.9c-1.6,0-3.1-0.3-4.5-0.9c-1.4-0.6-2.6-1.5-3.6-2.5    c-1-1.1-1.8-2.3-2.4-3.7c-0.6-1.4-0.8-2.9-0.8-4.5c0-2.1,0.5-4,1.4-5.7c1-1.7,2.3-3.1,4-4.2c1.7-1,3.6-1.6,5.8-1.6    c2.2,0,4.1,0.5,5.8,1.6c1.7,1.1,3,2.5,3.9,4.2c0.9,1.7,1.4,3.6,1.4,5.7c0,0.2,0,0.5,0,0.7c0,0.2,0,0.4,0,0.5h-19.2    c0.1,1.6,0.6,3,1.4,4.3c0.8,1.2,1.8,2.2,3,3c1.2,0.7,2.6,1.1,4,1.1c1.5,0,2.9-0.4,4.2-1.1c1.3-0.7,2.2-1.7,2.7-2.9l2.5,0.7    c-0.5,1.1-1.2,2-2.1,2.9c-0.9,0.9-2.1,1.5-3.3,2C514.7,403.7,513.3,403.9,511.8,403.9L511.8,403.9z M503.5,391.2h16.6    c-0.1-1.6-0.6-3-1.3-4.3c-0.8-1.2-1.8-2.2-3-2.9c-1.2-0.7-2.6-1-4-1c-1.5,0-2.8,0.3-4,1c-1.2,0.7-2.2,1.7-3,2.9    C504.1,388.2,503.7,389.6,503.5,391.2z M538,402.6c-0.2,0.1-0.6,0.2-1.1,0.5c-0.5,0.2-1.1,0.4-1.8,0.6c-0.7,0.2-1.4,0.3-2.2,0.3    c-0.8,0-1.6-0.2-2.4-0.5c-0.7-0.3-1.3-0.8-1.7-1.5c-0.4-0.7-0.6-1.5-0.6-2.4v-16.2h-3.1v-2.3h3.1v-7.6h2.9v7.6h5.2v2.3h-5.2v15.3    c0.1,0.8,0.4,1.4,0.9,1.8c0.5,0.4,1.1,0.6,1.8,0.6c0.8,0,1.5-0.1,2.2-0.4c0.7-0.3,1.1-0.5,1.2-0.6L538,402.6L538,402.6z     M560.6,403.5h-2.9V391c0-2.5-0.4-4.4-1.3-5.7c-0.9-1.3-2.2-1.9-3.8-1.9c-1.1,0-2.2,0.3-3.3,0.8c-1.1,0.6-2,1.3-2.8,2.3    c-0.8,0.9-1.4,2-1.7,3.3v13.7h-2.9V372h2.9v14.2c0.9-1.7,2.1-3,3.7-4c1.6-1,3.3-1.5,5.1-1.5c1.3,0,2.4,0.2,3.3,0.7    c0.9,0.5,1.6,1.1,2.2,2c0.6,0.9,1,1.9,1.2,3c0.3,1.2,0.4,2.5,0.4,3.9L560.6,403.5L560.6,403.5z M576.5,403.9    c-1.6,0-3.1-0.3-4.5-0.9c-1.4-0.6-2.6-1.5-3.6-2.5c-1-1.1-1.8-2.3-2.4-3.7c-0.6-1.4-0.8-2.9-0.8-4.5c0-2.1,0.5-4,1.4-5.7    c1-1.7,2.3-3.1,4-4.2c1.7-1,3.6-1.6,5.8-1.6c2.2,0,4.1,0.5,5.8,1.6c1.7,1.1,3,2.5,3.9,4.2c0.9,1.7,1.4,3.6,1.4,5.7    c0,0.2,0,0.5,0,0.7c0,0.2,0,0.4,0,0.5h-19.2c0.1,1.6,0.6,3,1.4,4.3c0.8,1.2,1.8,2.2,3,3c1.2,0.7,2.6,1.1,4,1.1    c1.5,0,2.9-0.4,4.2-1.1c1.3-0.7,2.2-1.7,2.7-2.9l2.5,0.7c-0.5,1.1-1.2,2-2.1,2.9c-0.9,0.9-2.1,1.5-3.3,2    C579.4,403.7,578,403.9,576.5,403.9L576.5,403.9z M568.2,391.2h16.6c-0.1-1.6-0.6-3-1.3-4.3c-0.8-1.2-1.8-2.2-3-2.9    c-1.2-0.7-2.6-1-4-1c-1.5,0-2.8,0.3-4,1c-1.2,0.7-2.2,1.7-3,2.9C568.8,388.2,568.4,389.6,568.2,391.2z M603.3,383.6    c-2,0.1-3.7,0.6-5.2,1.6c-1.5,1-2.5,2.5-3.1,4.3v14h-2.9v-22.4h2.8v5.3c0.8-1.6,1.8-2.9,3.1-3.8c1.3-1,2.6-1.5,4.1-1.6    c0.3,0,0.5,0,0.8,0c0.2,0,0.4,0,0.5,0V383.6L603.3,383.6z M456.6,426h2.9l-9.7,22.4h-2.5l-4.7-11.1l-4.7,11.1h-2.5l-9.7-22.4h2.8    l8.2,19.4l4.1-10.1l-3.8-9.2h2.6l2.8,7.3l2.9-7.3h2.6l-3.8,9.2l4.1,10.1L456.6,426L456.6,426z M472.3,448.8    c-1.6,0-3.1-0.3-4.5-0.9c-1.4-0.6-2.6-1.5-3.6-2.5c-1-1.1-1.8-2.3-2.4-3.7c-0.6-1.4-0.8-2.9-0.8-4.5c0-2.1,0.5-4,1.4-5.7    c1-1.7,2.3-3.1,4-4.2c1.7-1,3.6-1.6,5.8-1.6c2.2,0,4.1,0.5,5.8,1.6c1.7,1.1,3,2.5,3.9,4.2c0.9,1.7,1.4,3.6,1.4,5.7    c0,0.2,0,0.5,0,0.7c0,0.2,0,0.4,0,0.5h-19.2c0.1,1.6,0.6,3,1.4,4.3c0.8,1.2,1.8,2.2,3,3c1.2,0.7,2.6,1.1,4,1.1    c1.5,0,2.9-0.4,4.2-1.1c1.3-0.7,2.2-1.7,2.7-2.9l2.5,0.7c-0.5,1.1-1.2,2-2.1,2.9c-0.9,0.9-2.1,1.5-3.3,2    C475.2,448.6,473.8,448.8,472.3,448.8L472.3,448.8z M464,436.1h16.6c-0.1-1.6-0.6-3-1.3-4.3c-0.8-1.2-1.8-2.2-3-2.9    c-1.2-0.7-2.6-1-4-1c-1.5,0-2.8,0.3-4,1c-1.2,0.7-2.2,1.7-3,2.9C464.6,433.1,464.2,434.5,464,436.1L464,436.1z M509.7,447.5    c-0.2,0.1-0.6,0.2-1.1,0.5c-0.5,0.2-1.1,0.4-1.8,0.6c-0.7,0.2-1.4,0.3-2.2,0.3c-0.8,0-1.6-0.2-2.4-0.5c-0.7-0.3-1.3-0.8-1.7-1.5    c-0.4-0.7-0.6-1.5-0.6-2.4v-16.2h-3.1V426h3.1v-7.6h2.9v7.6h5.2v2.3h-5.2v15.3c0.1,0.8,0.4,1.4,0.9,1.8c0.5,0.4,1.1,0.6,1.8,0.6    c0.8,0,1.5-0.1,2.2-0.4c0.7-0.3,1.1-0.5,1.2-0.6L509.7,447.5L509.7,447.5z M532.3,448.4h-2.9v-12.5c0-2.5-0.4-4.4-1.3-5.7    c-0.9-1.3-2.2-1.9-3.8-1.9c-1.1,0-2.2,0.3-3.3,0.8c-1.1,0.6-2,1.3-2.8,2.3c-0.8,0.9-1.4,2-1.7,3.3v13.7h-2.9v-31.5h2.9v14.2    c0.9-1.7,2.1-3,3.7-4c1.6-1,3.3-1.5,5.1-1.5c1.3,0,2.4,0.2,3.3,0.7c0.9,0.5,1.6,1.1,2.2,2c0.6,0.9,1,1.9,1.2,3    c0.3,1.2,0.4,2.5,0.4,3.9L532.3,448.4L532.3,448.4z M549.7,428.5c-2,0.1-3.7,0.6-5.2,1.6c-1.5,1-2.5,2.5-3.1,4.3v14h-2.9V426h2.8    v5.3c0.8-1.6,1.8-2.9,3.1-3.8c1.3-1,2.6-1.5,4.1-1.6c0.3,0,0.5,0,0.8,0c0.2,0,0.4,0,0.5,0V428.5L549.7,428.5z M553.7,448.4v-22.5    h2.9v22.5H553.7z M553.7,421.2v-4.3h2.9v4.3H553.7z M569.7,448.4l-9.1-22.4h3.1l7.7,19.5l7.7-19.5h2.9l-9.1,22.4H569.7    L569.7,448.4z M595,448.8c-1.6,0-3.1-0.3-4.5-0.9c-1.4-0.6-2.6-1.5-3.6-2.5c-1-1.1-1.8-2.3-2.4-3.7c-0.6-1.4-0.8-2.9-0.8-4.5    c0-2.1,0.5-4,1.4-5.7c1-1.7,2.3-3.1,4-4.2c1.7-1,3.6-1.6,5.8-1.6c2.2,0,4.1,0.5,5.8,1.6c1.7,1.1,3,2.5,3.9,4.2    c0.9,1.7,1.4,3.6,1.4,5.7c0,0.2,0,0.5,0,0.7c0,0.2,0,0.4,0,0.5h-19.2c0.1,1.6,0.6,3,1.4,4.3c0.8,1.2,1.8,2.2,3,3    c1.2,0.7,2.6,1.1,4,1.1c1.5,0,2.9-0.4,4.2-1.1c1.3-0.7,2.2-1.7,2.7-2.9l2.5,0.7c-0.5,1.1-1.2,2-2.1,2.9c-0.9,0.9-2.1,1.5-3.3,2    C597.8,448.6,596.4,448.8,595,448.8L595,448.8z M586.7,436.1h16.6c-0.1-1.6-0.6-3-1.3-4.3c-0.8-1.2-1.8-2.2-3-2.9    c-1.2-0.7-2.6-1-4-1c-1.5,0-2.8,0.3-4,1c-1.2,0.7-2.2,1.7-3,2.9C587.2,433.1,586.8,434.5,586.7,436.1z M611.3,438.5v-21h2.9v21    H611.3z M611.3,448.4v-4.8h2.9v4.8H611.3z"/>
		<line class="st0" x1="425.8" y1="352.1" x2="565.4" y2="352.1"/>
	</g>
	<g>
		<linearGradient id="SVGID_1_" gradientUnits="userSpaceOnUse" x1="184.7122" y1="139.1493" x2="184.7122" y2="139.1493">
			<stop offset="0" style="stop-color:#FF8000"/>
			<stop offset="1" style="stop-color:#80FF00"/>
		</linearGradient>
		<path class="st1" d="M184.7,139.1"/>
		<linearGradient id="SVGID_2_" gradientUnits="userSpaceOnUse" x1="266.8093" y1="150.6926" x2="266.8093" y2="453.3597">
			<stop offset="0" style="stop-color:#003399"/>
			<stop offset="1" style="stop-color:#00B4D8"/>
		</linearGradient>
		<path class="st2" d="M212.6,161.8l167.5,1.7v86.1l0.1,15.6c0.2,19.2,1,37.6-1.7,60.5c-0.8,6.5-2.3,13.1-4.1,20    c-1.8,6.8-4,12.9-7.4,20.1c-4.5,9.5-11.1,19.5-17.7,28.1c-6.3,8.4-13.4,15.8-20.5,21.5c-11.2,9.7-24.3,16.5-38.7,20.9    c-14.8,4.5-31.1,6.6-47.6,6.9c-2.7-2.8-2.9-3.1-2.9-3.1c17.4-0.1,34.3-2,49.7-6.8c13.9-4.3,26.7-11,37.6-20.4h0.1    c6.9-5.5,13.8-12.9,20-21c6.3-8.5,12.8-18.2,17.2-27.5c3.4-7,5.4-12.9,7.2-19.6c1.8-6.8,3.3-13.2,4-19.6    c2.7-22.9,1.9-41.1,1.7-60.1l-0.1-15.7v-83.1L218.7,168l155,1.8v88.6l0.1,13.5c0.2,19.8,1.1,37.7-3.1,60    c-0.9,4.8-2.3,10.1-3.7,15.6c-1.6,5.7-4,11.5-6.8,17.1c-5,10.2-11.7,20.3-18.6,28.7c-7.6,9.4-15.5,17.1-22.2,21.7    c-9.1,6.2-20.3,11.7-32.1,15.2c-12.8,3.8-27,5.5-38.3,5.9l-3.1-3.2c10.9,0.2,26.8-1.6,40.4-5.7c11.7-3.5,22.5-8.7,31.2-14.7    c6.6-4.5,14.3-12.1,21.6-21.2c6.8-8.4,13.2-18.2,18.2-28.2c2.7-5.3,5.1-11,6.6-16.5c1.5-5.4,2.8-10.8,3.6-15.4    c4.2-22.1,3.3-39.8,3.1-59.4l-0.1-13.5v-85.6l-145.5,1.7l142.1,1.6v99.6c0.1,21.8,0.7,42.6-5.4,65.2c-1.4,5-2.8,10-4.9,15.2    c-2.2,5.3-5.7,11.4-8.8,16.7c-5,8.5-11,16.5-17.7,23.8c-6.3,6.9-13.1,12-19.9,16.3c-11.5,7.4-24.7,11.8-38.6,14.4    c-10.8,1.9-28.2,2.8-42.1,3.2c-2.8-2.9-2.8-2.9-2.9-3.1c14.1-0.2,33.2-1.1,44.5-3.2c13.6-2.5,26.4-6.8,37.6-13.9    c6.6-4.1,13.1-9.1,19.2-15.7c6.6-7.1,12.4-15.1,17.3-23.3c3.1-5.2,6.4-11.2,8.6-16.3c2-5.1,3.4-10,4.8-14.9    c6-22.1,5.4-42.7,5.3-64.3v-96.5L232,181.5l128.8,1.1v97.8c0,23.3,0.2,44.6-7.8,66.8c-5.8,15.8-11.8,26.1-21.5,38.3    c-8.8,10.9-20.3,20.4-30.9,25.9c-11.1,5.9-20.8,8.9-30.9,10.6c-9.2,1.5-20.8,2-32.5,1.9l-3.1-3.1c12.4,0,25.3-0.3,35.1-1.9    c9.7-1.7,19.1-4.6,30-10.3c10.2-5.3,21.4-14.6,29.9-25.1c9.6-12,16.4-23.5,21-37.3c7.1-22,7.6-42.8,7.6-65.8v-94.7l-120,1.6    l116.6,1.7V285c0,12.3-0.5,24.6-2.2,36.4c-1.8,11.9-4.1,23.4-9.3,34.2c-5.4,11.3-12.9,22.4-22.5,32.3    c-8.6,8.9-19.4,16.3-29.2,21.3c-21,10.3-51.7,8.4-73.9,8.5c-2.9-3.1-2.8-2.9-3.1-3.2c22,0,53.1,2,75.7-8.3    c9.7-4.3,19.9-11.9,28.3-20.5c9.3-9.6,16.5-20.4,22-31.5c5.1-10.5,7.2-21.7,8.9-33.3c1.7-11.7,2.2-23.8,2.2-36v-93l-107.2,1.7    l103.8,1.6v98.6c0,12.9-1.2,25.9-4.1,38.3c-2.6,10.9-6.1,21.7-11.8,30.9c-6.3,10.3-14.7,20.3-24.3,28.2    c-8.7,7.4-16.7,12.2-26.7,15.1c-17.9,5.1-30.6,5.3-46.1,5.2l-10.5-0.3l-3.1-3.2l13.6,0.3c15.2,0.1,27.7,0,45.3-5    c9.5-2.7,17.1-7.5,25.6-14.5c9.3-7.7,17.4-17.4,23.7-27.4c5.5-8.9,8.8-19.5,11.3-30.1c2.9-12,4.1-24.7,4.1-37.5v-95.5l-94.4,1.8    l91,1.5v101.2c0,12.3-1.8,24.8-5.3,36.3c-3.5,11-8.5,21.2-15.3,29.8c-7.1,8.9-15.5,17.3-25,23.3l-0.1,0.1    c-9.2,5.8-19.4,9.4-29.1,10.9c-15.1,2.2-30,1.9-43.8,1.7l-18.2-0.1l-2.3-2.3l-0.8-0.9l21.4,0.2c13.6,0.2,28.3,0.5,43.2-1.7    c9.3-1.5,19.1-4.9,28-10.4v-0.1c9.3-5.8,17.4-13.9,24.3-22.6c6.6-8.3,11.4-18.1,14.7-28.7c3.5-11.3,5.2-23.4,5.2-35.4v-98.1    l-81.4,2.2l78,1.2v97.3c0,12.2-2.5,25.1-6.9,37c-4.3,11.4-10.6,21.5-18.1,29.4c-9.2,10-15.7,15.2-28.1,20.7    c-9.5,4.3-19.9,5.7-31.3,5.7l-39-0.2l-3.1-3.1l42.1,0.2c11,0,20.9-1.6,30.1-5.4c10.3-4.2,18.1-10.2,27.2-20    c7.1-7.7,13.2-17.3,17.4-28.3c4.3-11.5,6.7-24.2,6.7-36v-94.3l-71.4-0.1l-0.1,160.7l-3.2-3.2l-0.9-102.1l-2.2,119l-3.2-3.3    l-1.4-122.3l-1.9,99.3l-3.2-3.2l-1.5-102.6l-1.6,119.4l-3.3-3.2l-1.5-121.8l-1.7,98.9l-3.3-3.2L231,242l-2.3,118.3l-3.2-3.3    L224,235.5l-1.7,98.5l-3.3-3.3l-1.6-102l-1.4,118.8l-3.3-3.2l-1.5-121.9l-1.7,99l-3.3-3.2l-1.6-102.2l-1.4,119.1l-3.2-3.2    c0,0,0-95.3,0-121l-59.6-60.2l0.2,0c0-0.1,252.2-0.1,252.2-0.1v160.9c0,19.5-4,38.1-11,55.2c-7.4,17.7-18.1,33.6-31.6,47    c-13.4,13.4-29.3,24.2-47,31.6c-15.1,6.2-31.2,10-48.3,10.8c-2.6-2.8-2.4-2.4-2.8-2.9c17.7-0.5,34.5-4.3,50-10.8    c17.3-7.1,32.9-17.7,45.9-30.8c13.1-13,23.7-28.7,30.9-46.1c6.9-16.6,10.8-34.9,10.8-54V153.7l-183.8,1.5l180.4,1.9v83.6    c0,8.1,0.1,15.4,0.2,22.5c0.2,17.5,0.5,35-0.7,56.8c-0.5,8.6-2.2,17.9-4.9,27.3c-2.6,9.1-6.1,18.4-10.8,27.2    c-4,7.6-8.6,14.7-13.7,21.3c-5.4,6.9-11.1,13.5-17.2,19c-11.4,10.6-24.9,18.6-37.7,24c-12.3,5.3-27.7,8.6-40.4,9.7l-2.9-2.8    c12.9-0.9,29.3-4.2,42.2-9.7c12.4-5.3,25.6-13,36.7-23.4l0.1-0.1c6-5.3,11.5-11.8,16.7-18.6c5.1-6.5,9.6-13.5,13.5-20.8    c4.5-8.5,7.9-17.7,10.5-26.6c2.7-9.2,4.3-18.2,4.8-26.5c1.1-21.8,0.9-39.2,0.7-56.7c-0.1-7.6-0.2-15.2-0.2-22.5v-80.6L212.6,161.8    z"/>
		<g>
			<g>
				<g>
					<polygon class="st3" points="199.3,396 179.3,396 182.4,399.1 202.4,399.1      "/>
					<polygon class="st3" points="211.8,408.6 192.4,408.6 195.5,411.8 214.8,411.8      "/>
					<polygon class="st3" points="249.4,446.9 231.9,447.9 234.7,450.8 252.4,449.7      "/>
					<polygon class="st3" points="236.9,434.1 217.4,434.1 220.6,437.2 239.9,437.2      "/>
					<polygon class="st3" points="224.9,421.4 205.8,421.4 208.8,424.4 227.9,424.4      "/>
				</g>
			</g>
		</g>
	</g>
</g>
</svg>