<?xml version="1.0" standalone="no"?>
<!DOCTYPE svg PUBLIC "-//W3C//DTD SVG 1.1//EN" "http://www.w3.org/Graphics/SVG/1.1/DTD/svg11.dtd">
<svg xmlns="http://www.w3.org/2000/svg" xmlns:xlink="http://www.w3.org/1999/xlink" viewBox="0 0 252.4 305.5" width="252.39999389648438" height="305.5"><defs><style>.cls-1{fill:url(#linear-gradient);}.cls-2{fill:#00b2d7;}</style><linearGradient id="linear-gradient" x1="-28.5" y1="61.5" x2="-28.5" y2="364.17" gradientTransform="translate(154.7 -61.5)" gradientUnits="userSpaceOnUse"><stop offset="0" stop-color="#039"/><stop offset="1" stop-color="#00b4d8"/></linearGradient></defs><g id="Layer_2" data-name="Layer 2"><g id="Layer_1-2" data-name="Layer 1"><path class="cls-1" d="M72.2,11.2l167.5,1.7V99l.1,15.6c.2,19.2,1,37.6-1.7,60.5a153.18,153.18,0,0,1-4.1,20,112.41,112.41,0,0,1-7.4,20.1,163.4,163.4,0,0,1-17.7,28.1,121,121,0,0,1-20.5,21.5,105.44,105.44,0,0,1-38.7,20.9c-14.8,4.5-31.1,6.6-47.6,6.9-2.7-2.8-2.9-3.1-2.9-3.1,17.4-.1,34.3-2,49.7-6.8a104.22,104.22,0,0,0,37.6-20.4h.1a122,122,0,0,0,20-21c6.3-8.5,12.8-18.2,17.2-27.5a104.43,104.43,0,0,0,7.2-19.6,133.55,133.55,0,0,0,4-19.6c2.7-22.9,1.9-41.1,1.7-60.1l-.1-15.7V15.7L78.3,17.4l155,1.8v88.6l.1,13.5c.2,19.8,1.1,37.7-3.1,60-.9,4.8-2.3,10.1-3.7,15.6a98.11,98.11,0,0,1-6.8,17.1,152,152,0,0,1-18.6,28.7c-7.6,9.4-15.5,17.1-22.2,21.7a117.59,117.59,0,0,1-32.1,15.2,160.16,160.16,0,0,1-38.3,5.9l-3.1-3.2a143.1,143.1,0,0,0,40.4-5.7,112.72,112.72,0,0,0,31.2-14.7c6.6-4.5,14.3-12.1,21.6-21.2a158.22,158.22,0,0,0,18.2-28.2,88.39,88.39,0,0,0,6.6-16.5c1.5-5.4,2.8-10.8,3.6-15.4,4.2-22.1,3.3-39.8,3.1-59.4l-.1-13.5V22.1L84.6,23.8l142.1,1.6V125c.1,21.8.7,42.6-5.4,65.2a139.41,139.41,0,0,1-4.9,15.2,150.16,150.16,0,0,1-8.8,16.7,141.37,141.37,0,0,1-17.7,23.8A95.09,95.09,0,0,1,170,262.2c-11.5,7.4-24.7,11.8-38.6,14.4-10.8,1.9-28.2,2.8-42.1,3.2-2.8-2.9-2.8-2.9-2.9-3.1,14.1-.2,33.2-1.1,44.5-3.2,13.6-2.5,26.4-6.8,37.6-13.9a91.72,91.72,0,0,0,19.2-15.7A139.22,139.22,0,0,0,205,220.6a149.92,149.92,0,0,0,8.6-16.3c2-5.1,3.4-10,4.8-14.9,6-22.1,5.4-42.7,5.3-64.3V28.6L91.6,30.9,220.4,32v97.8c0,23.3.2,44.6-7.8,66.8a125.53,125.53,0,0,1-21.5,38.3c-8.8,10.9-20.3,20.4-30.9,25.9a97.91,97.91,0,0,1-30.9,10.6c-9.2,1.5-20.8,2-32.5,1.9l-3.1-3.1c12.4,0,25.3-.3,35.1-1.9a99.1,99.1,0,0,0,30-10.3c10.2-5.3,21.4-14.6,29.9-25.1,9.6-12,16.4-23.5,21-37.3,7.1-22,7.6-42.8,7.6-65.8V35.1l-120,1.6,116.6,1.7v96a257.6,257.6,0,0,1-2.2,36.4c-1.8,11.9-4.1,23.4-9.3,34.2a122.49,122.49,0,0,1-22.5,32.3,113.41,113.41,0,0,1-29.2,21.3c-21,10.3-51.7,8.4-73.9,8.5-2.9-3.1-2.8-2.9-3.1-3.2,22,0,53.1,2,75.7-8.3,9.7-4.3,19.9-11.9,28.3-20.5a124.62,124.62,0,0,0,22-31.5c5.1-10.5,7.2-21.7,8.9-33.3a251.91,251.91,0,0,0,2.2-36v-93L103.6,43l103.8,1.6v98.6a169,169,0,0,1-4.1,38.3c-2.6,10.9-6.1,21.7-11.8,30.9a114.45,114.45,0,0,1-24.3,28.2c-8.7,7.4-16.7,12.2-26.7,15.1-17.9,5.1-30.6,5.3-46.1,5.2l-10.5-.3-3.1-3.2,13.6.3c15.2.1,27.7,0,45.3-5,9.5-2.7,17.1-7.5,25.6-14.5A116.48,116.48,0,0,0,189,210.8c5.5-8.9,8.8-19.5,11.3-30.1a160.36,160.36,0,0,0,4.1-37.5V47.7L110,49.5,201,51V152.2a126.1,126.1,0,0,1-5.3,36.3,93.48,93.48,0,0,1-15.3,29.8c-7.1,8.9-15.5,17.3-25,23.3l-.1.1a77.43,77.43,0,0,1-29.1,10.9c-15.1,2.2-30,1.9-43.8,1.7l-18.2-.1-2.3-2.3-.8-.9,21.4.2c13.6.2,28.3.5,43.2-1.7a77.15,77.15,0,0,0,28-10.4V239c9.3-5.8,17.4-13.9,24.3-22.6a87.73,87.73,0,0,0,14.7-28.7,120.31,120.31,0,0,0,5.2-35.4V54.2l-81.4,2.2,78,1.2v97.3a108.54,108.54,0,0,1-6.9,37,87.88,87.88,0,0,1-18.1,29.4c-9.2,10-15.7,15.2-28.1,20.7-9.5,4.3-19.9,5.7-31.3,5.7l-39-.2L68,244.4l42.1.2c11,0,20.9-1.6,30.1-5.4,10.3-4.2,18.1-10.2,27.2-20a88.34,88.34,0,0,0,17.4-28.3,105.19,105.19,0,0,0,6.7-36V60.6l-71.4-.1L120,221.2l-3.2-3.2-.9-102.1-2.2,119-3.2-3.3-1.4-122.3-1.9,99.3-3.2-3.2-1.5-102.6-1.6,119.4L97.6,219,96.1,97.2l-1.7,98.9-3.3-3.2L90.6,91.4,88.3,209.7l-3.2-3.3L83.6,84.9l-1.7,98.5-3.3-3.3L77,78.1,75.6,196.9l-3.3-3.2L70.8,71.8l-1.7,99-3.3-3.2L64.2,65.4,62.8,184.5l-3.2-3.2V60.3L0,.1H.2C.2,0,252.4,0,252.4,0V160.9A144.91,144.91,0,0,1,114.5,305.5c-2.6-2.8-2.4-2.4-2.8-2.9A142.34,142.34,0,0,0,249.3,160.9V3.1L65.5,4.6,245.9,6.5V90.1c0,8.1.1,15.4.2,22.5.2,17.5.5,35-.7,56.8a126.57,126.57,0,0,1-4.9,27.3,138.64,138.64,0,0,1-10.8,27.2A146.52,146.52,0,0,1,216,245.2a150.41,150.41,0,0,1-17.2,19,130.41,130.41,0,0,1-37.7,24c-12.3,5.3-27.7,8.6-40.4,9.7l-2.9-2.8c12.9-.9,29.3-4.2,42.2-9.7,12.4-5.3,25.6-13,36.7-23.4l.1-.1a130.45,130.45,0,0,0,16.7-18.6,133.82,133.82,0,0,0,24-47.4,121.21,121.21,0,0,0,4.8-26.5c1.1-21.8.9-39.2.7-56.7-.1-7.6-.2-15.2-.2-22.5V9.6Z"/><polygon class="cls-2" points="58.9 245.4 38.9 245.4 42 248.5 62 248.5 58.9 245.4"/><polygon class="cls-2" points="71.4 258 52 258 55.1 261.2 74.4 261.2 71.4 258"/><polygon class="cls-2" points="109 296.3 91.5 297.3 94.3 300.2 112 299.1 109 296.3"/><polygon class="cls-2" points="96.5 283.5 77 283.5 80.2 286.6 99.5 286.6 96.5 283.5"/><polygon class="cls-2" points="84.5 270.8 65.4 270.8 68.4 273.8 87.5 273.8 84.5 270.8"/></g></g></svg>